<svg version="1.0" class="how-it-works-grahpic-svg" xmlns="http://www.w3.org/2000/svg" xmlns:xlink="http://www.w3.org/1999/xlink" x="0px" y="0px"
	 viewBox="0 0 500 300" enable-background="new 0 0 500 300" xml:space="preserve" width="422">
<g>
	<path fill="#908A82" d="M457.45,167.83H97.24c-1.5,0-2.71-1.24-2.71-2.78s1.21-2.78,2.71-2.78h360.21c1.5,0,2.71,1.24,2.71,2.78
		S458.95,167.83,457.45,167.83z"/>
</g>
<g>
	<g>
		<path fill="#CEA000" d="M390.73,67.31c0-1.46,1.15-2.64,2.58-2.64l0,0c1.43,0,2.58,1.18,2.58,2.64l0,0c0,1.46-1.15,2.64-2.58,2.64
			l0,0C391.88,69.95,390.73,68.77,390.73,67.31z M380.4,67.31c0-1.46,1.15-2.64,2.58-2.64l0,0c1.43,0,2.58,1.18,2.58,2.64l0,0
			c0,1.46-1.15,2.64-2.58,2.64l0,0C381.55,69.95,380.4,68.77,380.4,67.31z M370.07,67.31c0-1.46,1.15-2.64,2.58-2.64l0,0
			c1.43,0,2.58,1.18,2.58,2.64l0,0c0,1.46-1.15,2.64-2.58,2.64l0,0C371.23,69.95,370.07,68.77,370.07,67.31z M359.75,67.31
			c0-1.46,1.15-2.64,2.58-2.64l0,0c1.43,0,2.58,1.18,2.58,2.64l0,0c0,1.46-1.15,2.64-2.58,2.64l0,0
			C360.9,69.95,359.75,68.77,359.75,67.31z M349.42,67.31c0-1.46,1.15-2.64,2.58-2.64l0,0c1.43,0,2.58,1.18,2.58,2.64l0,0
			c0,1.46-1.15,2.64-2.58,2.64l0,0C350.57,69.95,349.42,68.77,349.42,67.31z M339.09,67.31c0-1.46,1.15-2.64,2.58-2.64l0,0
			c1.43,0,2.58,1.18,2.58,2.64l0,0c0,1.46-1.15,2.64-2.58,2.64l0,0C340.25,69.95,339.09,68.77,339.09,67.31z M328.77,67.31
			c0-1.46,1.15-2.64,2.58-2.64l0,0c1.43,0,2.58,1.18,2.58,2.64l0,0c0,1.46-1.15,2.64-2.58,2.64l0,0
			C329.92,69.95,328.77,68.77,328.77,67.31z M318.44,67.31c0-1.46,1.15-2.64,2.58-2.64l0,0c1.43,0,2.58,1.18,2.58,2.64l0,0
			c0,1.46-1.15,2.64-2.58,2.64l0,0C319.59,69.95,318.44,68.77,318.44,67.31z"/>
	</g>
	<g>
		<g>
			<polygon fill="#CEA000" points="403,72.97 413.92,66.51 403,60.06 			"/>
		</g>
	</g>
</g>
<path fill="#908A82" d="M163.68,51.94v27.01h-28.79V44.57h21.59L163.68,51.94z M161.28,54.4l-7.2-7.37h-16.79v29.46h23.99V54.4z
	 M148.09,59.31l-3.6,3.68l3.6,3.68l-2.4,2.46l-6-6.14l6-6.14L148.09,59.31z M152.88,56.85l6,6.14l-6,6.14l-2.4-2.46l3.6-3.68
	l-3.6-3.68L152.88,56.85z"/>
<path fill="#908A82" d="M235.45,51.94v27.01h-28.79V44.57h21.59L235.45,51.94z M233.05,54.4l-7.2-7.37h-16.79v29.46h23.99V54.4z
	 M219.85,59.31l-3.6,3.68l3.6,3.68l-2.4,2.46l-6-6.14l6-6.14L219.85,59.31z M224.65,56.85l6,6.14l-6,6.14l-2.4-2.46l3.6-3.68
	l-3.6-3.68L224.65,56.85z"/>
<ellipse fill="#F4F4F2" cx="149.29" cy="165.06" rx="10.05" ry="10.29"/>
<path fill="#908A82" d="M149.29,177.99c-6.97,0-12.63-5.8-12.63-12.93c0-7.13,5.67-12.93,12.63-12.93s12.63,5.8,12.63,12.93
	C161.92,172.19,156.25,177.99,149.29,177.99z M149.29,157.41c-4.12,0-7.47,3.43-7.47,7.65c0,4.22,3.35,7.65,7.47,7.65
	s7.47-3.43,7.47-7.65C156.76,160.84,153.4,157.41,149.29,157.41z"/>
<ellipse fill="#F4F4F2" cx="221.05" cy="165.06" rx="10.05" ry="10.29"/>
<path fill="#908A82" d="M221.05,177.99c-6.97,0-12.63-5.8-12.63-12.93c0-7.13,5.67-12.93,12.63-12.93s12.63,5.8,12.63,12.93
	C233.69,172.19,228.02,177.99,221.05,177.99z M221.05,157.41c-4.12,0-7.47,3.43-7.47,7.65c0,4.22,3.35,7.65,7.47,7.65
	s7.47-3.43,7.47-7.65C228.52,160.84,225.17,157.41,221.05,157.41z"/>
<ellipse fill="#F4F4F2" cx="292.82" cy="165.06" rx="10.05" ry="10.29"/>
<path fill="#CEA000" d="M292.82,177.99c-6.97,0-12.64-5.8-12.64-12.93c0-7.13,5.67-12.93,12.64-12.93c6.97,0,12.64,5.8,12.64,12.93
	C305.46,172.19,299.79,177.99,292.82,177.99z M292.82,157.41c-4.12,0-7.47,3.43-7.47,7.65c0,4.22,3.35,7.65,7.47,7.65
	c4.12,0,7.47-3.43,7.47-7.65C300.29,160.84,296.94,157.41,292.82,157.41z"/>
<g>
	<g>
		<path fill="#ADAAA6" d="M146.5,140.8c0-1.46,1.15-2.64,2.58-2.64l0,0c1.43,0,2.58,1.18,2.58,2.64l0,0c0,1.46-1.15,2.64-2.58,2.64
			l0,0C147.66,143.44,146.5,142.26,146.5,140.8z M146.5,130.23c0-1.46,1.15-2.64,2.58-2.64l0,0c1.43,0,2.58,1.18,2.58,2.64l0,0
			c0,1.46-1.15,2.64-2.58,2.64l0,0C147.66,132.87,146.5,131.69,146.5,130.23z M146.5,119.66c0-1.46,1.15-2.64,2.58-2.64l0,0
			c1.43,0,2.58,1.18,2.58,2.64l0,0c0,1.46-1.15,2.64-2.58,2.64l0,0C147.66,122.3,146.5,121.12,146.5,119.66z M146.5,109.09
			c0-1.46,1.15-2.64,2.58-2.64l0,0c1.43,0,2.58,1.18,2.58,2.64l0,0c0,1.46-1.15,2.64-2.58,2.64l0,0
			C147.66,111.73,146.5,110.55,146.5,109.09z"/>
	</g>
	<g>
		<g>
			<polygon fill="#ADAAA6" points="155.04,99 148.73,87.82 142.42,99 			"/>
		</g>
	</g>
</g>
<g>
	<g>
		<path fill="#ADAAA6" d="M218.27,140.8c0-1.46,1.15-2.64,2.58-2.64l0,0c1.43,0,2.58,1.18,2.58,2.64l0,0c0,1.46-1.15,2.64-2.58,2.64
			l0,0C219.42,143.44,218.27,142.26,218.27,140.8z M218.27,130.23c0-1.46,1.15-2.64,2.58-2.64l0,0c1.43,0,2.58,1.18,2.58,2.64l0,0
			c0,1.46-1.15,2.64-2.58,2.64l0,0C219.42,132.87,218.27,131.69,218.27,130.23z M218.27,119.66c0-1.46,1.15-2.64,2.58-2.64l0,0
			c1.43,0,2.58,1.18,2.58,2.64l0,0c0,1.46-1.15,2.64-2.58,2.64l0,0C219.42,122.3,218.27,121.12,218.27,119.66z M218.27,109.09
			c0-1.46,1.15-2.64,2.58-2.64l0,0c1.43,0,2.58,1.18,2.58,2.64l0,0c0,1.46-1.15,2.64-2.58,2.64l0,0
			C219.42,111.73,218.27,110.55,218.27,109.09z"/>
	</g>
	<g>
		<g>
			<polygon fill="#ADAAA6" points="226.8,99 220.5,87.82 214.19,99 			"/>
		</g>
	</g>
</g>
<g>
	<g>
		<path fill="#CEA000" d="M290.04,140.8c0-1.46,1.15-2.64,2.58-2.64l0,0c1.43,0,2.58,1.18,2.58,2.64l0,0c0,1.46-1.15,2.64-2.58,2.64
			l0,0C291.19,143.44,290.04,142.26,290.04,140.8z M290.04,130.23c0-1.46,1.15-2.64,2.58-2.64l0,0c1.43,0,2.58,1.18,2.58,2.64l0,0
			c0,1.46-1.15,2.64-2.58,2.64l0,0C291.19,132.87,290.04,131.69,290.04,130.23z M290.04,119.66c0-1.46,1.15-2.64,2.58-2.64l0,0
			c1.43,0,2.58,1.18,2.58,2.64l0,0c0,1.46-1.15,2.64-2.58,2.64l0,0C291.19,122.3,290.04,121.12,290.04,119.66z M290.04,109.09
			c0-1.46,1.15-2.64,2.58-2.64l0,0c1.43,0,2.58,1.18,2.58,2.64l0,0c0,1.46-1.15,2.64-2.58,2.64l0,0
			C291.19,111.73,290.04,110.55,290.04,109.09z"/>
	</g>
	<g>
		<g>
			<polygon fill="#CEA000" points="298.57,99 292.26,87.82 285.96,99 			"/>
		</g>
	</g>
</g>
<g>
	<path fill="#ADAAA6" d="M146.5,222.02c0-1.46,1.15-2.64,2.58-2.64l0,0c1.43,0,2.58,1.18,2.58,2.64l0,0c0,1.46-1.15,2.64-2.58,2.64
		l0,0C147.66,224.67,146.5,223.49,146.5,222.02z M146.5,211.45c0-1.46,1.15-2.64,2.58-2.64l0,0c1.43,0,2.58,1.18,2.58,2.64l0,0
		c0,1.46-1.15,2.64-2.58,2.64l0,0C147.66,214.1,146.5,212.92,146.5,211.45z M146.5,200.88c0-1.46,1.15-2.64,2.58-2.64l0,0
		c1.43,0,2.58,1.18,2.58,2.64l0,0c0,1.46-1.15,2.64-2.58,2.64l0,0C147.66,203.53,146.5,202.35,146.5,200.88z M146.5,190.31
		c0-1.46,1.15-2.64,2.58-2.64l0,0c1.43,0,2.58,1.18,2.58,2.64l0,0c0,1.46-1.15,2.64-2.58,2.64l0,0
		C147.66,192.96,146.5,191.78,146.5,190.31z"/>
</g>
<g>
	<g>
		<path fill="#ADAAA6" d="M66.65,128.01c0-1.46,1.15-2.64,2.58-2.64l0,0c1.43,0,2.58,1.18,2.58,2.64l0,0c0,1.46-1.15,2.64-2.58,2.64
			l0,0C67.81,130.65,66.65,129.47,66.65,128.01z M66.65,117.44c0-1.46,1.15-2.64,2.58-2.64l0,0c1.43,0,2.58,1.18,2.58,2.64l0,0
			c0,1.46-1.15,2.64-2.58,2.64l0,0C67.81,120.08,66.65,118.9,66.65,117.44z M66.65,106.87c0-1.46,1.15-2.64,2.58-2.64l0,0
			c1.43,0,2.58,1.18,2.58,2.64l0,0c0,1.46-1.15,2.64-2.58,2.64l0,0C67.81,109.51,66.65,108.33,66.65,106.87z"/>
	</g>
	<g>
		<g>
			<polygon fill="#ADAAA6" points="75.19,99 68.88,87.82 62.57,99 			"/>
		</g>
	</g>
</g>
<g>
	<path fill="#ADAAA6" d="M66.65,222.02c0-1.46,1.15-2.64,2.58-2.64l0,0c1.43,0,2.58,1.18,2.58,2.64l0,0c0,1.46-1.15,2.64-2.58,2.64
		l0,0C67.81,224.67,66.65,223.49,66.65,222.02z M66.65,211.45c0-1.46,1.15-2.64,2.58-2.64l0,0c1.43,0,2.58,1.18,2.58,2.64l0,0
		c0,1.46-1.15,2.64-2.58,2.64l0,0C67.81,214.1,66.65,212.92,66.65,211.45z M66.65,200.88c0-1.46,1.15-2.64,2.58-2.64l0,0
		c1.43,0,2.58,1.18,2.58,2.64l0,0c0,1.46-1.15,2.64-2.58,2.64l0,0C67.81,203.53,66.65,202.35,66.65,200.88z"/>
</g>
<g>
	<path fill="#ADAAA6" d="M218.27,222.02c0-1.46,1.15-2.64,2.58-2.64l0,0c1.43,0,2.58,1.18,2.58,2.64l0,0c0,1.46-1.15,2.64-2.58,2.64
		l0,0C219.42,224.67,218.27,223.49,218.27,222.02z M218.27,211.45c0-1.46,1.15-2.64,2.58-2.64l0,0c1.43,0,2.58,1.18,2.58,2.64l0,0
		c0,1.46-1.15,2.64-2.58,2.64l0,0C219.42,214.1,218.27,212.92,218.27,211.45z M218.27,200.88c0-1.46,1.15-2.64,2.58-2.64l0,0
		c1.43,0,2.58,1.18,2.58,2.64l0,0c0,1.46-1.15,2.64-2.58,2.64l0,0C219.42,203.53,218.27,202.35,218.27,200.88z M218.27,190.31
		c0-1.46,1.15-2.64,2.58-2.64l0,0c1.43,0,2.58,1.18,2.58,2.64l0,0c0,1.46-1.15,2.64-2.58,2.64l0,0
		C219.42,192.96,218.27,191.78,218.27,190.31z"/>
</g>
<g>
	<path fill="#CEA000" d="M290.04,222.02c0-1.46,1.15-2.64,2.58-2.64l0,0c1.43,0,2.58,1.18,2.58,2.64l0,0c0,1.46-1.15,2.64-2.58,2.64
		l0,0C291.19,224.67,290.04,223.49,290.04,222.02z M290.04,211.45c0-1.46,1.15-2.64,2.58-2.64l0,0c1.43,0,2.58,1.18,2.58,2.64l0,0
		c0,1.46-1.15,2.64-2.58,2.64l0,0C291.19,214.1,290.04,212.92,290.04,211.45z M290.04,200.88c0-1.46,1.15-2.64,2.58-2.64l0,0
		c1.43,0,2.58,1.18,2.58,2.64l0,0c0,1.46-1.15,2.64-2.58,2.64l0,0C291.19,203.53,290.04,202.35,290.04,200.88z M290.04,190.31
		c0-1.46,1.15-2.64,2.58-2.64l0,0c1.43,0,2.58,1.18,2.58,2.64l0,0c0,1.46-1.15,2.64-2.58,2.64l0,0
		C291.19,192.96,290.04,191.78,290.04,190.31z"/>
</g>
<path fill="#908A82" d="M83.83,45.34c0.47,0.49,0.72,1.05,0.75,1.69v4.91c-0.03,0.64-0.28,1.2-0.75,1.69
	c-0.47,0.49-1.02,0.74-1.65,0.77H58.19c-0.62-0.03-1.17-0.28-1.65-0.77c-0.47-0.49-0.72-1.05-0.75-1.69v-4.91
	c0.02-0.64,0.26-1.2,0.71-1.69c0.45-0.49,1.01-0.74,1.69-0.77h23.99C82.81,44.6,83.36,44.86,83.83,45.34z M83.83,57.62
	c0.47,0.49,0.72,1.05,0.75,1.69v4.91c-0.03,0.64-0.28,1.2-0.75,1.69c-0.47,0.49-1.02,0.74-1.65,0.77H58.19
	c-0.62-0.03-1.17-0.28-1.65-0.77c-0.47-0.49-0.72-1.05-0.75-1.69v-4.91c0.02-0.64,0.26-1.2,0.71-1.69c0.45-0.49,1.01-0.74,1.69-0.77
	h23.99C82.81,56.88,83.36,57.13,83.83,57.62z M83.83,69.9c0.47,0.49,0.72,1.05,0.75,1.69v4.91c-0.03,0.64-0.28,1.2-0.75,1.69
	c-0.47,0.49-1.02,0.74-1.65,0.77H58.19c-0.62-0.03-1.17-0.28-1.65-0.77c-0.47-0.49-0.72-1.05-0.75-1.69v-4.91
	c0.02-0.64,0.26-1.2,0.71-1.69c0.45-0.49,1.01-0.74,1.69-0.77h23.99C82.81,69.15,83.36,69.41,83.83,69.9z M60.59,47.03h-2.4v4.91
	h2.4V47.03z M60.59,59.31h-2.4v4.91h2.4V59.31z M60.59,71.58h-2.4v4.91h2.4V71.58z M65.39,47.03h-2.4v4.91h2.4V47.03z M65.39,59.31
	h-2.4v4.91h2.4V59.31z M65.39,71.58h-2.4v4.91h2.4V71.58z M70.19,47.03h-2.4v4.91h2.4V47.03z M70.19,59.31h-2.4v4.91h2.4V59.31z
	 M70.19,71.58h-2.4v4.91h2.4V71.58z M74.99,47.03h-2.4v4.91h2.4V47.03z M74.99,59.31h-2.4v4.91h2.4V59.31z M74.99,71.58h-2.4v4.91
	h2.4V71.58z M82.18,47.03h-2.4v2.46h2.4V47.03z"/>
<path fill="#ADAAA6" d="M53.72,34.14v-0.8l0.82-0.11l-0.93-2.4c-0.15-0.39-0.35-0.54-0.77-0.54h-1.05v2.69c0,0.2,0.01,0.23,0.2,0.25
	l0.79,0.1v0.81h-3.41v-0.81l0.78-0.09c0.17-0.03,0.2-0.06,0.2-0.25v-6.86c0-0.19-0.02-0.24-0.2-0.25l-0.78-0.09v-0.82h3.96
	c2.23,0,2.82,1.24,2.82,2.51c0,1.33-0.69,2.05-1.67,2.45c0.38,0.19,0.51,0.49,0.74,1.1l0.74,1.94c0.1,0.19,0.19,0.22,0.37,0.24
	l0.76,0.13v0.81H53.72z M52.7,29.21c1.05,0,1.96-0.29,1.96-1.67c0-1.17-0.69-1.47-2.04-1.47h-0.83v3.14H52.7z M62.58,33.7
	c-0.68,0.36-1.47,0.6-2.38,0.6c-2.3,0-3.06-1.51-3.06-3.46c0-2.3,1.3-3.37,2.92-3.37c1.56,0,2.63,0.85,2.63,3.05
	c0,0.17-0.01,0.5-0.04,0.74h-4c0.06,1.18,0.51,1.88,1.71,1.88c0.61,0,1.08-0.13,1.82-0.44L62.58,33.7z M61.26,30.2
	c0-1.24-0.56-1.64-1.23-1.64c-0.71,0-1.31,0.48-1.37,1.64H61.26z M70.61,34.14v-0.8l0.64-0.09c0.17-0.03,0.2-0.1,0.2-0.25v-2.98
	c0-0.72-0.09-1.33-0.78-1.33c-0.56,0-1.14,0.25-1.52,0.51c0.04,0.21,0.05,0.46,0.05,0.71v3.08c0,0.2,0.01,0.23,0.2,0.25l0.57,0.09
	v0.81h-3.05v-0.8l0.66-0.09c0.19-0.03,0.2-0.1,0.2-0.25v-2.92c0-0.74-0.04-1.41-0.77-1.41c-0.59,0-1.13,0.32-1.54,0.65v3.66
	c0,0.2,0.01,0.23,0.2,0.25l0.61,0.09v0.81h-3.02v-0.8l0.59-0.1c0.17-0.03,0.2-0.06,0.2-0.25v-4.08c0-0.14-0.04-0.23-0.16-0.27
	L63.2,28.4l0.12-0.81h1.83l0.1,0.71l0.05,0.01c0.63-0.5,1.28-0.85,2.12-0.85c0.59,0,1.15,0.18,1.47,0.76
	c0.59-0.39,1.25-0.76,2.16-0.76c1.38,0,1.82,0.85,1.82,2.17v3.36c0,0.2,0.01,0.23,0.2,0.25l0.68,0.09v0.81H70.61z M74.13,30.93
	c0-2.1,1.03-3.47,3.21-3.47s3.02,1.38,3.02,3.31c0,2.13-0.97,3.52-3.15,3.52C74.95,34.29,74.13,32.87,74.13,30.93z M78.89,30.84
	c0-1.61-0.53-2.28-1.59-2.28c-1.05,0-1.68,0.67-1.68,2.29c0,1.62,0.57,2.36,1.63,2.36C78.3,33.21,78.89,32.5,78.89,30.84z
	 M85.42,33.85c-0.51,0.24-1.18,0.44-1.83,0.44c-1.3,0-1.85-0.58-1.85-1.84v-3.7c0-0.08,0-0.13-0.1-0.13h-0.89v-0.9
	c0.97-0.13,1.35-0.8,1.51-1.91h0.9v1.65c0,0.09,0,0.13,0.1,0.13h1.8v1.04h-1.9v3.45c0,0.79,0.2,1.08,0.89,1.08
	c0.37,0,0.76-0.1,1.08-0.22L85.42,33.85z M90.89,33.7c-0.68,0.36-1.47,0.6-2.38,0.6c-2.3,0-3.06-1.51-3.06-3.46
	c0-2.3,1.3-3.37,2.92-3.37c1.56,0,2.63,0.85,2.63,3.05c0,0.17-0.01,0.5-0.04,0.74h-4c0.06,1.18,0.51,1.88,1.71,1.88
	c0.61,0,1.08-0.13,1.82-0.44L90.89,33.7z M89.58,30.2c0-1.24-0.56-1.64-1.23-1.64c-0.71,0-1.31,0.48-1.37,1.64H89.58z"/>
<path fill="#F64B18" d="M441.31,28.75c-4.07-0.03-7.47-0.51-10.18-1.44c-2.71-0.93-4.12-2.09-4.22-3.47v-4.91
	c0.1-1.38,1.51-2.54,4.22-3.47c2.71-0.93,6.1-1.41,10.18-1.44c4.07,0.03,7.47,0.51,10.18,1.44c2.71,0.93,4.12,2.09,4.22,3.47v4.91
	c-0.1,1.38-1.51,2.54-4.22,3.47C448.77,28.25,445.38,28.73,441.31,28.75z M441.31,38.57c-4.07-0.03-7.47-0.51-10.18-1.44
	c-2.71-0.93-4.12-2.09-4.22-3.47v-4.91c0-0.26,0.07-0.51,0.22-0.77c0.08-0.15,0.18-0.31,0.3-0.46c0.85,1.07,2.52,1.95,5.02,2.63
	c2.5,0.68,5.45,1.02,8.85,1.02s6.35-0.34,8.85-1.02c2.5-0.68,4.17-1.55,5.02-2.63c0.12,0.15,0.22,0.31,0.3,0.46
	c0.15,0.26,0.22,0.51,0.22,0.77v4.91c-0.1,1.38-1.51,2.54-4.22,3.47C448.77,38.07,445.38,38.55,441.31,38.57z M441.31,48.39
	c-4.07-0.03-7.47-0.51-10.18-1.44c-2.71-0.93-4.12-2.09-4.22-3.47v-4.91c0.02-0.43,0.2-0.84,0.52-1.23
	c0.85,1.07,2.52,1.95,5.02,2.63c2.5,0.68,5.45,1.02,8.85,1.02s6.35-0.34,8.85-1.02c2.5-0.68,4.17-1.55,5.02-2.63
	c0.32,0.38,0.5,0.79,0.52,1.23v4.91c-0.1,1.38-1.51,2.54-4.22,3.47C448.77,47.89,445.38,48.37,441.31,48.39z M441.31,16.47
	c-2.72,0.03-4.99,0.27-6.78,0.73c-1.8,0.46-2.74,1.04-2.81,1.73c0.07,0.69,1.01,1.27,2.81,1.73c1.8,0.46,4.06,0.69,6.78,0.69
	c2.72,0,4.99-0.23,6.78-0.69c1.8-0.46,2.74-1.04,2.81-1.73c-0.07-0.69-1.01-1.27-2.81-1.73C446.29,16.74,444.03,16.5,441.31,16.47z"
	/>
<path fill="#F64B18" d="M345.22,27.4v-1.08l1.04-0.12c0.23-0.03,0.26-0.08,0.26-0.34v-9.15c0-0.25-0.03-0.32-0.26-0.34l-1.04-0.12
	v-1.1h4.87v1.1l-1.37,0.13c-0.25,0.02-0.26,0.09-0.26,0.32v9.25h3.7c0.18,0,0.23-0.02,0.26-0.19l0.26-1.6h1.39v3.23H345.22z
	 M360.37,27.4l-0.17-1l-0.05-0.02c-0.73,0.71-1.62,1.22-2.91,1.22c-2.08,0-2.36-1.45-2.36-2.4c0-1.69,1.02-2.5,3.04-2.67l2.1-0.17
	V21.5c0-1.07-0.18-1.64-1.45-1.64c-0.91,0-1.52,0.07-1.52,1.23l-1.78-0.17c0-2.16,1.93-2.43,3.34-2.43c2.39,0,3.29,0.69,3.29,3.03
	v4.34c0,0.27,0.02,0.3,0.26,0.34l0.81,0.12v1.08H360.37z M360.02,23.6l-1.57,0.13c-1.24,0.12-1.62,0.47-1.62,1.29
	c0,0.81,0.38,1.08,1.06,1.08c0.81,0,1.64-0.51,2.13-1.01V23.6z M363.41,27.4v-1.1l0.79-0.1c0.23-0.03,0.26-0.08,0.26-0.34v-5.44
	c0-0.19-0.05-0.29-0.22-0.36l-0.91-0.32l0.17-1.08h2.46l0.18,1.23l0.05,0.02c0.54-0.73,1.32-1.42,2.43-1.42
	c0.38,0,0.99,0.07,1.29,0.15v2.77l-1.49-0.07l-0.2-1.05c-0.02-0.15-0.05-0.19-0.2-0.19c-0.63,0-1.34,0.56-1.67,0.88v4.85
	c0,0.27,0.03,0.32,0.28,0.34l1.55,0.13v1.08H363.41z M377.09,20c0.33,0.44,0.63,0.96,0.63,1.74c0,1.96-1.52,3.04-3.45,3.04
	c-0.54,0-1.07-0.05-1.39-0.15l-0.76,1.28l2.03,0.1c2.94,0.15,4.34,0.3,4.34,2.35c0,1.79-1.52,2.84-4.39,2.84
	c-2.91,0-3.95-0.8-3.95-2.08c0-0.81,0.45-1.3,1.01-1.84c-0.55-0.24-0.76-0.64-0.76-1.05c0-0.36,0.13-0.64,0.41-0.96
	c0.26-0.3,0.61-0.73,0.91-1.05c-0.76-0.42-1.29-1.3-1.29-2.48c0-1.88,1.29-3.25,3.65-3.25c0.59,0,1.21,0.07,1.55,0.17h3.01v1.23
	L377.09,20z M372.46,27.64c-0.3,0.32-0.63,0.74-0.63,1.18c0,0.78,0.88,1.03,2.31,1.03c0.84,0,2.44-0.13,2.44-1.22
	c0-0.74-0.63-0.78-1.59-0.85L372.46,27.64z M374.18,19.86c-1.11,0-1.92,0.57-1.92,1.84c0,0.96,0.51,1.69,1.87,1.69
	c1.14,0,1.9-0.68,1.9-1.72C376.03,20.51,375.34,19.86,374.18,19.86z M386.13,26.81c-0.91,0.47-1.96,0.8-3.17,0.8
	c-3.07,0-4.08-2.01-4.08-4.61c0-3.06,1.73-4.5,3.9-4.5c2.08,0,3.5,1.13,3.5,4.07c0,0.22-0.02,0.66-0.05,0.98h-5.33
	c0.08,1.57,0.68,2.5,2.28,2.5c0.81,0,1.44-0.17,2.43-0.59L386.13,26.81z M384.37,22.15c0-1.66-0.74-2.18-1.64-2.18
	c-0.94,0-1.75,0.64-1.83,2.18H384.37z M390.42,27.4v-1.08l1.04-0.12c0.23-0.03,0.26-0.08,0.26-0.34v-9.15
	c0-0.25-0.03-0.32-0.26-0.34l-1.04-0.12v-1.1h8.42v3.04l-1.4-0.07l-0.23-1.3c-0.03-0.17-0.1-0.22-0.28-0.22h-3.27v3.85h4.13v1.47
	h-4.13v3.9c0,0.27,0.02,0.3,0.26,0.34l2.43,0.13v1.08H390.42z M399.53,27.4v-1.06l0.99-0.14c0.23-0.03,0.26-0.08,0.26-0.34v-5.44
	c0-0.19-0.05-0.3-0.22-0.36l-0.91-0.32l0.17-1.08h2.86v7.2c0,0.27,0.02,0.3,0.26,0.34l0.97,0.12v1.08H399.53z M401.53,17.01
	c-0.79,0-1.24-0.46-1.24-1.27c0-0.79,0.45-1.23,1.24-1.23c0.78,0,1.24,0.44,1.24,1.23C402.77,16.55,402.3,17.01,401.53,17.01z
	 M404.21,27.4v-1.06l0.94-0.14c0.23-0.03,0.26-0.08,0.26-0.34V16.4c0-0.19-0.05-0.3-0.22-0.36l-0.94-0.32l0.17-1.08h2.89v11.22
	c0,0.27,0.02,0.3,0.26,0.34l0.93,0.12v1.08H404.21z M416.23,26.81c-0.91,0.47-1.96,0.8-3.17,0.8c-3.07,0-4.08-2.01-4.08-4.61
	c0-3.06,1.73-4.5,3.9-4.5c2.08,0,3.5,1.13,3.5,4.07c0,0.22-0.02,0.66-0.05,0.98H411c0.08,1.57,0.68,2.5,2.28,2.5
	c0.81,0,1.44-0.17,2.43-0.59L416.23,26.81z M414.48,22.15c0-1.66-0.74-2.18-1.64-2.18c-0.94,0-1.75,0.64-1.83,2.18H414.48z
	 M367.37,37.21l-0.23-1.4c-0.03-0.19-0.07-0.27-0.17-0.32c-0.2-0.12-0.71-0.27-1.45-0.27c-1.52,0-2.26,0.69-2.26,1.76
	c0,1.28,1.16,1.66,2.44,2.06c1.62,0.51,3.45,1.08,3.45,3.62c0,2.69-2.05,3.69-4.48,3.69c-1.5,0-3.04-0.39-3.6-0.66v-2.98h1.4
	l0.33,1.52c0.05,0.22,0.07,0.27,0.28,0.34c0.23,0.07,0.86,0.25,1.68,0.25c1.55,0,2.46-0.61,2.46-1.91c0-1.35-1.14-1.74-2.41-2.11
	c-1.64-0.49-3.48-0.96-3.48-3.53c0-2.49,1.87-3.58,4.26-3.58c1.4,0,2.56,0.37,3.19,0.62v3.04L367.37,37.21z M376.11,45.75
	c-0.68,0.32-1.57,0.59-2.44,0.59c-1.73,0-2.46-0.78-2.46-2.45v-4.94c0-0.1,0-0.17-0.13-0.17h-1.19v-1.2
	c1.29-0.17,1.8-1.07,2.01-2.55h1.21v2.2c0,0.12,0,0.17,0.13,0.17h2.39v1.39h-2.53v4.6c0,1.05,0.26,1.44,1.19,1.44
	c0.5,0,1.01-0.13,1.44-0.29L376.11,45.75z M376.17,41.86c0-2.81,1.37-4.63,4.28-4.63c2.91,0,4.03,1.84,4.03,4.41
	c0,2.84-1.29,4.7-4.19,4.7C377.26,46.34,376.17,44.45,376.17,41.86z M382.51,41.74c0-2.15-0.71-3.04-2.11-3.04
	c-1.4,0-2.25,0.9-2.25,3.06c0,2.16,0.76,3.14,2.18,3.14C381.73,44.9,382.51,43.96,382.51,41.74z M385.22,46.14v-1.1l0.79-0.1
	c0.23-0.03,0.26-0.08,0.26-0.34v-5.44c0-0.19-0.05-0.29-0.22-0.36l-0.91-0.32l0.17-1.08h2.46l0.18,1.23l0.05,0.02
	c0.54-0.73,1.32-1.42,2.43-1.42c0.38,0,0.99,0.07,1.29,0.15v2.77l-1.49-0.07l-0.2-1.05c-0.02-0.15-0.05-0.19-0.2-0.19
	c-0.63,0-1.34,0.56-1.67,0.88v4.85c0,0.27,0.03,0.32,0.28,0.34l1.55,0.13v1.08H385.22z M397.4,46.14l-0.17-1l-0.05-0.02
	c-0.73,0.71-1.62,1.22-2.91,1.22c-2.08,0-2.36-1.45-2.36-2.4c0-1.69,1.02-2.5,3.04-2.67l2.1-0.17v-0.86c0-1.07-0.18-1.64-1.45-1.64
	c-0.91,0-1.52,0.07-1.52,1.23l-1.78-0.17c0-2.16,1.93-2.43,3.34-2.43c2.39,0,3.29,0.69,3.29,3.03v4.34c0,0.27,0.02,0.3,0.26,0.34
	l0.81,0.12v1.08H397.4z M397.05,42.33l-1.57,0.13c-1.24,0.12-1.62,0.47-1.62,1.29c0,0.81,0.38,1.08,1.06,1.08
	c0.81,0,1.64-0.51,2.13-1.01V42.33z M407.19,38.73c0.33,0.44,0.63,0.96,0.63,1.74c0,1.96-1.52,3.04-3.45,3.04
	c-0.54,0-1.07-0.05-1.39-0.15l-0.76,1.28l2.03,0.1c2.94,0.15,4.34,0.3,4.34,2.35c0,1.79-1.52,2.84-4.39,2.84
	c-2.91,0-3.95-0.8-3.95-2.08c0-0.81,0.45-1.3,1.01-1.84c-0.55-0.24-0.76-0.64-0.76-1.05c0-0.36,0.13-0.64,0.41-0.96
	c0.26-0.3,0.61-0.73,0.91-1.05c-0.76-0.42-1.29-1.3-1.29-2.48c0-1.88,1.29-3.25,3.65-3.25c0.59,0,1.21,0.07,1.55,0.17h3.01v1.23
	L407.19,38.73z M402.57,46.37c-0.3,0.32-0.63,0.74-0.63,1.18c0,0.78,0.88,1.03,2.31,1.03c0.84,0,2.44-0.13,2.44-1.22
	c0-0.74-0.63-0.78-1.59-0.85L402.57,46.37z M404.29,38.6c-1.11,0-1.92,0.57-1.92,1.84c0,0.96,0.51,1.69,1.87,1.69
	c1.14,0,1.9-0.68,1.9-1.72C406.14,39.24,405.44,38.6,404.29,38.6z M416.23,45.54c-0.91,0.47-1.97,0.8-3.17,0.8
	c-3.07,0-4.08-2.01-4.08-4.61c0-3.06,1.73-4.5,3.9-4.5c2.08,0,3.5,1.13,3.5,4.07c0,0.22-0.02,0.66-0.05,0.98H411
	c0.08,1.57,0.68,2.5,2.28,2.5c0.81,0,1.44-0.17,2.43-0.59L416.23,45.54z M414.48,40.88c0-1.66-0.74-2.18-1.64-2.18
	c-0.94,0-1.75,0.64-1.83,2.18H414.48z"/>
<path fill="#908A82" d="M88.63,233.56c0.47,0.49,0.72,1.05,0.75,1.69v22.1c-0.03,0.64-0.28,1.2-0.75,1.69
	c-0.48,0.49-1.02,0.74-1.65,0.77h-12c0.3,0.05,1.5,0.56,3.6,1.53c2.1,0.97,3.3,2.1,3.6,3.38c-0.03,0.64-0.28,1.2-0.75,1.69
	c-0.48,0.49-1.03,0.74-1.65,0.77H60.59c-0.62-0.03-1.17-0.28-1.65-0.77c-0.48-0.49-0.73-1.05-0.75-1.69c0.3-1.28,1.5-2.4,3.6-3.38
	c2.1-0.97,3.3-1.48,3.6-1.53h-12c-0.62-0.03-1.17-0.28-1.65-0.77c-0.47-0.49-0.72-1.05-0.75-1.69v-22.1
	c0.02-0.64,0.27-1.2,0.75-1.69c0.47-0.49,1.02-0.74,1.65-0.77h16.79c9.35,0,14.94,0,16.79,0C87.61,232.82,88.16,233.07,88.63,233.56
	z M86.98,235.25H53.39v22.1h33.59V235.25z M84.58,254.89H55.79v-2.46c0.55-1.87,2.5-4.42,5.87-7.66c3.36-3.23,8.6-5.59,15.73-7.08
	h7.2V254.89z"/>
<path fill="#ADAAA6" d="M55.57,283.91v-0.81l0.78-0.09c0.17-0.03,0.2-0.06,0.2-0.25v-6.86c0-0.19-0.02-0.24-0.2-0.25l-0.78-0.09
	v-0.82h3.65v0.82l-1.03,0.1c-0.19,0.01-0.2,0.06-0.2,0.24v6.93h2.77c0.14,0,0.17-0.01,0.2-0.14l0.2-1.2h1.04v2.42H55.57z
	 M62.74,280.7c0-2.1,1.03-3.47,3.21-3.47c2.18,0,3.02,1.38,3.02,3.31c0,2.13-0.97,3.52-3.15,3.52
	C63.56,284.06,62.74,282.64,62.74,280.7z M67.5,280.61c0-1.61-0.53-2.28-1.59-2.28c-1.05,0-1.68,0.67-1.68,2.29s0.57,2.36,1.63,2.36
	C66.91,282.98,67.5,282.27,67.5,280.61z M74.86,283.49c-0.52,0.33-1.36,0.57-2.22,0.57c-2.17,0-3.11-1.41-3.11-3.35
	c0-2.38,1.37-3.49,3.29-3.49c0.94,0,1.7,0.27,2.02,0.46v1.8l-1.03-0.05l-0.15-0.84c-0.01-0.09-0.04-0.14-0.14-0.18
	c-0.16-0.06-0.46-0.11-0.77-0.11c-0.95,0-1.75,0.61-1.75,2.3c0,1.72,0.78,2.29,1.86,2.29c0.62,0,1.18-0.18,1.57-0.39L74.86,283.49z
	 M79.42,283.91l-0.12-0.75l-0.04-0.01c-0.54,0.53-1.21,0.91-2.18,0.91c-1.56,0-1.77-1.09-1.77-1.8c0-1.27,0.77-1.88,2.28-2
	l1.57-0.13v-0.65c0-0.8-0.14-1.23-1.09-1.23c-0.68,0-1.14,0.05-1.14,0.92l-1.34-0.13c0-1.62,1.45-1.83,2.5-1.83
	c1.8,0,2.46,0.52,2.46,2.27v3.26c0,0.2,0.01,0.23,0.2,0.25l0.61,0.09v0.81H79.42z M79.16,281.05l-1.18,0.1
	c-0.93,0.09-1.21,0.36-1.21,0.96c0,0.61,0.28,0.81,0.79,0.81c0.61,0,1.23-0.38,1.6-0.76V281.05z M81.59,283.91v-0.8l0.71-0.1
	c0.17-0.03,0.2-0.06,0.2-0.25v-7.1c0-0.14-0.04-0.23-0.16-0.27l-0.71-0.24l0.12-0.81h2.17v8.42c0,0.2,0.01,0.23,0.2,0.25l0.69,0.09
	v0.81H81.59z"/>
<path fill="#0088A8" d="M278.43,267.17v-34.38h21.59l7.2,7.37v27.01H278.43z M304.82,242.61l-7.2-7.37h-16.79v29.47h23.99V242.61z
	 M290.42,249.98h-7.2v-9.82h7.2V249.98z M288.02,259.8h2.4v2.46h-7.2v-2.46h2.4v-4.91h-2.4v-2.46h4.8V259.8z M288.02,242.61h-2.4
	v4.91h2.4V242.61z M297.62,247.52h2.4v2.46h-7.2v-2.46h2.4v-4.91h-2.4v-2.46h4.8V247.52z M300.02,262.26h-7.2v-9.82h7.2V262.26z
	 M297.62,254.89h-2.4v4.91h2.4V254.89z"/>
<path fill="#0088A8" d="M277.21,283.29v-0.8l0.78-0.1c0.15-0.03,0.16-0.08,0.16-0.24v-4.2c0-0.15-0.01-0.18-0.16-0.18h-2.47v4.35
	c0,0.19,0.01,0.22,0.2,0.24l0.94,0.11v0.81h-3.52v-0.81l0.76-0.09c0.19-0.03,0.2-0.08,0.2-0.24v-4.25c0-0.08,0-0.13-0.1-0.13h-0.87
	v-1.04h0.97v-0.82c0-1.7,0.87-2.33,2.92-2.33c1.4,0,2.39,0.14,2.43,1.74l-1.35,0.16c-0.01-0.77-0.21-0.89-1.14-0.89
	c-1.16,0-1.44,0.33-1.44,1.18v0.82c0,0.11,0,0.14,0.12,0.14h3.93v5.4c0,0.2,0.01,0.23,0.2,0.25l0.73,0.09v0.81H277.21z
	 M280.71,283.29v-0.8l0.71-0.1c0.17-0.03,0.2-0.06,0.2-0.25v-7.1c0-0.14-0.04-0.23-0.16-0.27l-0.71-0.24l0.12-0.81h2.17v8.42
	c0,0.2,0.01,0.23,0.2,0.25l0.69,0.09v0.81H280.71z M289.73,282.85c-0.68,0.36-1.48,0.6-2.38,0.6c-2.31,0-3.06-1.51-3.06-3.46
	c0-2.3,1.3-3.37,2.93-3.37c1.56,0,2.63,0.85,2.63,3.06c0,0.17-0.01,0.49-0.04,0.73h-4c0.06,1.18,0.51,1.88,1.71,1.88
	c0.61,0,1.08-0.13,1.82-0.44L289.73,282.85z M288.42,279.35c0-1.24-0.56-1.64-1.23-1.64c-0.71,0-1.31,0.48-1.38,1.64H288.42z
	 M291.44,283.44c-0.61,0-0.92-0.29-0.92-0.88c0-0.57,0.31-0.88,0.92-0.88c0.59,0,0.9,0.3,0.9,0.88
	C292.35,283.14,292.04,283.44,291.44,283.44z M293.14,285.98v-0.83l0.51-0.08c0.17-0.02,0.21-0.06,0.21-0.27v-6.76
	c0-0.14-0.04-0.22-0.16-0.27l-0.68-0.24l0.12-0.81h1.85l0.11,0.71l0.04,0.01c0.6-0.48,1.33-0.85,2.18-0.85c1.4,0,2.36,0.9,2.36,3.2
	c0,1.64-0.51,3.64-2.55,3.64c-0.68,0-1.33-0.24-1.86-0.66v2.03c0,0.2,0.02,0.24,0.21,0.25l1.22,0.1v0.81H293.14z M295.29,281.6
	c0.37,0.34,0.9,0.67,1.52,0.67c0.99,0,1.4-0.93,1.4-2.39c0-1.56-0.57-2.09-1.3-2.09c-0.67,0-1.31,0.42-1.62,0.67V281.6z
	 M304.09,278.62l-0.14-0.74c-0.01-0.09-0.04-0.14-0.14-0.18c-0.16-0.05-0.51-0.13-0.89-0.13c-0.79,0-1.18,0.29-1.18,0.8
	c0,0.67,0.7,0.82,1.48,1.01c0.98,0.24,2.08,0.55,2.08,1.99c0,1.5-1.21,2.06-2.63,2.06c-1.07,0-2.11-0.29-2.33-0.44v-1.73l1.03,0.06
	l0.12,0.77c0.02,0.1,0.04,0.14,0.15,0.18c0.16,0.05,0.56,0.18,1.11,0.18c0.77,0,1.24-0.23,1.24-0.88c0-0.71-0.79-0.82-1.62-1.02
	c-0.94-0.21-1.93-0.52-1.93-1.86c0-1.53,1.25-2.11,2.59-2.11c0.92,0,1.79,0.24,2.08,0.37v1.71L304.09,278.62z M310.54,283.29
	l-0.11-0.75l-0.08-0.01c-0.54,0.56-1.16,0.91-2.11,0.91c-1.43,0-2.37-0.94-2.37-3.31c0-2.53,1.17-3.53,2.6-3.53
	c0.74,0,1.36,0.22,1.84,0.57v-2.16c0-0.13-0.04-0.22-0.16-0.25l-0.71-0.24l0.13-0.81h2.13v8.42c0,0.2,0.01,0.23,0.2,0.25l0.61,0.09
	v0.81H310.54z M310.28,278.38c-0.36-0.31-0.89-0.61-1.44-0.61c-1.07,0-1.49,0.96-1.49,2.32c0,1.56,0.46,2.16,1.29,2.16
	c0.61,0,1.2-0.38,1.64-0.85V278.38z"/>
<path fill="#908A82" d="M163.68,240.16v27.01h-28.79v-34.38h21.59L163.68,240.16z M161.28,242.61l-7.2-7.37h-16.79v29.47h23.99
	V242.61z M148.09,247.52l-3.6,3.68l3.6,3.68l-2.4,2.46l-6-6.14l6-6.14L148.09,247.52z M152.88,245.07l6,6.14l-6,6.14l-2.4-2.46
	l3.6-3.68l-3.6-3.68L152.88,245.07z"/>
<path fill="#ADAAA6" d="M141.99,282.57c-0.52,0.33-1.36,0.57-2.22,0.57c-2.17,0-3.11-1.41-3.11-3.35c0-2.39,1.38-3.49,3.3-3.49
	c0.94,0,1.7,0.27,2.02,0.46v1.8l-1.03-0.05l-0.15-0.84c-0.01-0.09-0.04-0.14-0.14-0.18c-0.16-0.06-0.46-0.11-0.77-0.11
	c-0.95,0-1.75,0.61-1.75,2.3c0,1.73,0.78,2.3,1.86,2.3c0.62,0,1.18-0.18,1.57-0.39L141.99,282.57z M142.39,279.78
	c0-2.11,1.03-3.48,3.21-3.48s3.02,1.38,3.02,3.31c0,2.13-0.97,3.53-3.15,3.53C143.21,283.14,142.39,281.72,142.39,279.78z
	 M147.15,279.69c0-1.61-0.53-2.28-1.59-2.28c-1.05,0-1.69,0.67-1.69,2.3s0.57,2.36,1.64,2.36
	C146.57,282.07,147.15,281.35,147.15,279.69z M153.95,282.99l-0.11-0.75l-0.07-0.01c-0.55,0.56-1.17,0.91-2.11,0.91
	c-1.43,0-2.37-0.94-2.37-3.31c0-2.53,1.17-3.53,2.6-3.53c0.74,0,1.36,0.22,1.83,0.57v-2.16c0-0.13-0.04-0.22-0.16-0.25l-0.71-0.24
	l0.12-0.81h2.13v8.42c0,0.2,0.01,0.23,0.2,0.25l0.61,0.09v0.81H153.95z M153.69,278.08c-0.36-0.31-0.89-0.61-1.44-0.61
	c-1.07,0-1.49,0.96-1.49,2.32c0,1.56,0.46,2.16,1.29,2.16c0.61,0,1.2-0.38,1.64-0.85V278.08z M161.8,282.55
	c-0.68,0.36-1.48,0.6-2.38,0.6c-2.31,0-3.06-1.51-3.06-3.46c0-2.3,1.3-3.37,2.93-3.37c1.56,0,2.63,0.85,2.63,3.06
	c0,0.17-0.01,0.49-0.04,0.73h-4c0.06,1.18,0.51,1.88,1.71,1.88c0.61,0,1.08-0.13,1.82-0.44L161.8,282.55z M160.48,279.05
	c0-1.24-0.56-1.64-1.23-1.64c-0.71,0-1.31,0.48-1.38,1.64H160.48z"/>
<path fill="#908A82" d="M235.45,240.16v27.01h-28.79v-34.38h21.59L235.45,240.16z M233.05,242.61l-7.2-7.37h-16.79v29.47h23.99
	V242.61z M219.85,247.52l-3.6,3.68l3.6,3.68l-2.4,2.46l-6-6.14l6-6.14L219.85,247.52z M224.65,245.07l6,6.14l-6,6.14l-2.4-2.46
	l3.6-3.68l-3.6-3.68L224.65,245.07z"/>
<path fill="#ADAAA6" d="M213.76,282.57c-0.52,0.33-1.36,0.57-2.22,0.57c-2.17,0-3.11-1.41-3.11-3.35c0-2.39,1.38-3.49,3.3-3.49
	c0.94,0,1.7,0.27,2.02,0.46v1.8l-1.03-0.05l-0.15-0.84c-0.01-0.09-0.04-0.14-0.14-0.18c-0.16-0.06-0.46-0.11-0.77-0.11
	c-0.95,0-1.75,0.61-1.75,2.3c0,1.73,0.78,2.3,1.86,2.3c0.62,0,1.18-0.18,1.57-0.39L213.76,282.57z M214.16,279.78
	c0-2.11,1.03-3.48,3.21-3.48s3.02,1.38,3.02,3.31c0,2.13-0.97,3.53-3.15,3.53C214.97,283.14,214.16,281.72,214.16,279.78z
	 M218.92,279.69c0-1.61-0.53-2.28-1.59-2.28c-1.05,0-1.69,0.67-1.69,2.3s0.57,2.36,1.64,2.36
	C218.33,282.07,218.92,281.35,218.92,279.69z M225.72,282.99l-0.11-0.75l-0.07-0.01c-0.55,0.56-1.17,0.91-2.11,0.91
	c-1.43,0-2.37-0.94-2.37-3.31c0-2.53,1.17-3.53,2.6-3.53c0.74,0,1.36,0.22,1.83,0.57v-2.16c0-0.13-0.04-0.22-0.16-0.25l-0.71-0.24
	l0.12-0.81h2.13v8.42c0,0.2,0.01,0.23,0.2,0.25l0.61,0.09v0.81H225.72z M225.46,278.08c-0.36-0.31-0.89-0.61-1.44-0.61
	c-1.07,0-1.49,0.96-1.49,2.32c0,1.56,0.46,2.16,1.29,2.16c0.61,0,1.2-0.38,1.64-0.85V278.08z M233.56,282.55
	c-0.68,0.36-1.48,0.6-2.38,0.6c-2.31,0-3.06-1.51-3.06-3.46c0-2.3,1.3-3.37,2.93-3.37c1.56,0,2.63,0.85,2.63,3.06
	c0,0.17-0.01,0.49-0.04,0.73h-4c0.06,1.18,0.51,1.88,1.71,1.88c0.61,0,1.08-0.13,1.82-0.44L233.56,282.55z M232.25,279.05
	c0-1.24-0.56-1.64-1.23-1.64c-0.71,0-1.31,0.48-1.38,1.64H232.25z"/>
<path fill="#0088A8" d="M426.91,90.34V55.97h21.59l7.2,7.37v27.01H426.91z M453.3,65.79l-7.2-7.37h-16.79v29.46h23.99V65.79z
	 M438.91,73.16h-7.2v-9.82h7.2V73.16z M436.51,82.98h2.4v2.46h-7.2v-2.46h2.4v-4.91h-2.4v-2.46h4.8V82.98z M436.51,65.79h-2.4v4.91
	h2.4V65.79z M446.11,70.7h2.4v2.46h-7.2V70.7h2.4v-4.91h-2.4v-2.46h4.8V70.7z M448.5,85.43h-7.2v-9.82h7.2V85.43z M446.11,78.07
	h-2.4v4.91h2.4V78.07z"/>
<path fill="#0088A8" d="M439.93,108c-0.61,0-0.92-0.29-0.92-0.88c0-0.57,0.31-0.88,0.92-0.88c0.6,0,0.9,0.3,0.9,0.88
	C440.84,107.7,440.53,108,439.93,108z"/>
<path fill="#0088A8" d="M425.69,107.85v-0.8l0.78-0.1c0.15-0.02,0.16-0.08,0.16-0.24v-4.2c0-0.15-0.01-0.18-0.16-0.18h-2.47v4.35
	c0,0.19,0.01,0.21,0.2,0.24l0.94,0.11v0.81h-3.52v-0.81l0.76-0.09c0.19-0.02,0.2-0.08,0.2-0.24v-4.25c0-0.08,0-0.13-0.1-0.13h-0.87
	v-1.04h0.97v-0.83c0-1.7,0.87-2.33,2.93-2.33c1.4,0,2.39,0.14,2.43,1.74l-1.35,0.17c-0.01-0.77-0.21-0.89-1.14-0.89
	c-1.17,0-1.44,0.33-1.44,1.18v0.82c0,0.11,0,0.14,0.13,0.14h3.93v5.4c0,0.2,0.01,0.23,0.2,0.25l0.73,0.09v0.81H425.69z
	 M429.2,107.85v-0.8l0.71-0.1c0.17-0.02,0.2-0.06,0.2-0.25v-7.11c0-0.14-0.04-0.23-0.16-0.27l-0.71-0.24l0.12-0.81h2.17v8.42
	c0,0.2,0.01,0.23,0.2,0.25l0.69,0.09v0.81H429.2z M438.22,107.41c-0.68,0.36-1.48,0.6-2.38,0.6c-2.3,0-3.06-1.51-3.06-3.46
	c0-2.3,1.3-3.38,2.93-3.38c1.56,0,2.63,0.85,2.63,3.06c0,0.17-0.01,0.5-0.04,0.74h-4c0.06,1.18,0.51,1.88,1.71,1.88
	c0.61,0,1.08-0.13,1.82-0.44L438.22,107.41z M436.91,103.91c0-1.24-0.56-1.64-1.23-1.64c-0.71,0-1.32,0.48-1.38,1.64H436.91z
	 M441.63,110.54v-0.82l0.51-0.08c0.17-0.03,0.21-0.06,0.21-0.27v-6.76c0-0.14-0.04-0.21-0.16-0.27l-0.68-0.24l0.12-0.81h1.85
	l0.11,0.71l0.04,0.01c0.6-0.48,1.33-0.85,2.18-0.85c1.4,0,2.35,0.9,2.35,3.2c0,1.64-0.51,3.64-2.55,3.64
	c-0.68,0-1.33-0.24-1.86-0.66v2.03c0,0.2,0.03,0.24,0.21,0.25l1.21,0.1v0.81H441.63z M443.77,106.16c0.37,0.34,0.9,0.67,1.52,0.67
	c0.99,0,1.4-0.93,1.4-2.39c0-1.56-0.57-2.09-1.3-2.09c-0.67,0-1.31,0.42-1.62,0.67V106.16z M452.57,103.18l-0.14-0.73
	c-0.01-0.09-0.04-0.14-0.14-0.18c-0.16-0.05-0.51-0.13-0.89-0.13c-0.79,0-1.18,0.29-1.18,0.8c0,0.67,0.69,0.82,1.48,1.02
	c0.98,0.24,2.08,0.54,2.08,1.99c0,1.5-1.22,2.05-2.63,2.05c-1.07,0-2.11-0.29-2.33-0.44v-1.73l1.03,0.06l0.12,0.77
	c0.03,0.1,0.04,0.14,0.15,0.18c0.16,0.05,0.56,0.18,1.12,0.18c0.77,0,1.24-0.23,1.24-0.88c0-0.71-0.79-0.82-1.62-1.01
	c-0.94-0.22-1.93-0.52-1.93-1.86c0-1.54,1.25-2.11,2.59-2.11c0.92,0,1.78,0.24,2.08,0.37v1.71L452.57,103.18z M459.03,107.85
	l-0.11-0.75l-0.07-0.01c-0.55,0.56-1.17,0.91-2.11,0.91c-1.43,0-2.37-0.94-2.37-3.31c0-2.52,1.16-3.53,2.6-3.53
	c0.74,0,1.36,0.22,1.83,0.57v-2.16c0-0.13-0.04-0.22-0.16-0.25l-0.71-0.24l0.12-0.81h2.13v8.42c0,0.2,0.01,0.23,0.2,0.25l0.61,0.09
	v0.81H459.03z M458.77,102.94c-0.36-0.3-0.89-0.61-1.44-0.61c-1.07,0-1.49,0.96-1.49,2.32c0,1.56,0.46,2.16,1.29,2.16
	c0.61,0,1.2-0.38,1.64-0.85V102.94z"/>
<path fill="#A2CCCF" d="M307.21,53.13v27.01h-28.79V45.77h21.59L307.21,53.13z M304.82,55.59l-7.2-7.37h-16.79v29.46h23.99V55.59z
	 M292.82,55.59l9.6,7.37l-9.6,7.37v-4.91c-2.37-0.03-4.41,0.55-6.11,1.73c-1.7,1.18-2.86,3.06-3.49,5.64
	c0.05-4.02,0.95-7.07,2.7-9.15c1.75-2.08,4.05-3.13,6.9-3.13V55.59z"/>
<path fill="#8EB9BA" d="M263,39.51v-0.82l0.51-0.08c0.17-0.03,0.21-0.06,0.21-0.27v-6.76c0-0.14-0.04-0.21-0.16-0.27l-0.68-0.24
	l0.12-0.81h1.85l0.11,0.71l0.04,0.01c0.59-0.48,1.33-0.85,2.18-0.85c1.4,0,2.36,0.9,2.36,3.2c0,1.64-0.51,3.64-2.55,3.64
	c-0.68,0-1.33-0.24-1.86-0.66v2.03c0,0.2,0.02,0.24,0.21,0.25l1.22,0.1v0.81H263z M265.15,35.13c0.37,0.34,0.9,0.67,1.52,0.67
	c0.99,0,1.4-0.93,1.4-2.39c0-1.56-0.57-2.09-1.3-2.09c-0.67,0-1.31,0.42-1.62,0.67V35.13z M270.14,33.61c0-2.11,1.03-3.48,3.21-3.48
	c2.18,0,3.02,1.38,3.02,3.31c0,2.13-0.97,3.53-3.15,3.53C270.96,36.97,270.14,35.55,270.14,33.61z M274.9,33.52
	c0-1.61-0.53-2.28-1.59-2.28c-1.05,0-1.68,0.67-1.68,2.3s0.57,2.36,1.64,2.36C274.32,35.89,274.9,35.18,274.9,33.52z M276.78,36.82
	v-0.8l0.74-0.1c0.17-0.02,0.2-0.06,0.2-0.25v-4.09c0-0.14-0.04-0.23-0.16-0.27l-0.68-0.24l0.12-0.81h2.14v5.4
	c0,0.2,0.01,0.23,0.2,0.25l0.73,0.09v0.81H276.78z M278.28,29.02c-0.6,0-0.93-0.34-0.93-0.95c0-0.6,0.33-0.93,0.93-0.93
	c0.58,0,0.93,0.33,0.93,0.93C279.21,28.67,278.87,29.02,278.28,29.02z M284.38,36.82v-0.8l0.62-0.08c0.17-0.03,0.2-0.1,0.2-0.25
	v-2.94c0-0.76-0.09-1.4-0.88-1.4c-0.63,0-1.29,0.36-1.7,0.66v3.65c0,0.2,0.01,0.23,0.2,0.25l0.66,0.09v0.81h-3.08V36l0.6-0.08
	c0.17-0.02,0.2-0.06,0.2-0.25v-4.09c0-0.14-0.04-0.23-0.16-0.27l-0.68-0.24l0.12-0.81h1.83l0.1,0.7l0.05,0.01
	c0.69-0.48,1.43-0.84,2.32-0.84c1.34,0,1.85,0.86,1.85,2.32v3.21c0,0.2,0.01,0.23,0.2,0.25l0.68,0.09v0.81H284.38z M292.31,36.53
	c-0.51,0.24-1.18,0.44-1.84,0.44c-1.3,0-1.85-0.58-1.85-1.84v-3.7c0-0.08,0-0.13-0.1-0.13h-0.89v-0.9c0.97-0.13,1.35-0.8,1.51-1.92
	h0.9v1.65c0,0.09,0,0.13,0.1,0.13h1.8v1.04h-1.9v3.45c0,0.79,0.2,1.08,0.89,1.08c0.37,0,0.76-0.1,1.08-0.22L292.31,36.53z
	 M297.79,36.37c-0.68,0.36-1.48,0.6-2.38,0.6c-2.31,0-3.06-1.51-3.06-3.46c0-2.3,1.3-3.38,2.93-3.38c1.56,0,2.63,0.85,2.63,3.06
	c0,0.17-0.01,0.5-0.04,0.74h-4c0.06,1.18,0.51,1.88,1.71,1.88c0.61,0,1.08-0.13,1.82-0.44L297.79,36.37z M296.48,32.87
	c0-1.24-0.56-1.64-1.23-1.64c-0.71,0-1.31,0.48-1.38,1.64H296.48z M298.46,36.82V36l0.59-0.08c0.17-0.02,0.2-0.06,0.2-0.25v-4.09
	c0-0.14-0.04-0.21-0.16-0.27l-0.68-0.24l0.12-0.81h1.85l0.14,0.93l0.04,0.01c0.41-0.55,0.99-1.07,1.82-1.07
	c0.29,0,0.74,0.05,0.97,0.11v2.08l-1.12-0.05l-0.15-0.79c-0.01-0.11-0.04-0.14-0.15-0.14c-0.47,0-1,0.42-1.25,0.66v3.64
	c0,0.2,0.03,0.24,0.21,0.25l1.16,0.1v0.81H298.46z M310.12,36.82v-0.8l0.78-0.1c0.15-0.02,0.16-0.08,0.16-0.24v-4.2
	c0-0.15-0.01-0.18-0.16-0.18h-2.47v4.35c0,0.19,0.01,0.21,0.2,0.24l0.94,0.11v0.81h-3.52v-0.81l0.76-0.09
	c0.19-0.02,0.2-0.08,0.2-0.24v-4.25c0-0.08,0-0.13-0.1-0.13h-0.87v-1.04h0.97v-0.83c0-1.7,0.87-2.33,2.93-2.33
	c1.4,0,2.39,0.14,2.43,1.74L311.01,29c-0.01-0.77-0.21-0.89-1.14-0.89c-1.17,0-1.44,0.33-1.44,1.18v0.82c0,0.11,0,0.14,0.13,0.14
	h3.93v5.4c0,0.2,0.01,0.23,0.2,0.25l0.73,0.09v0.81H310.12z M313.63,36.82v-0.8l0.71-0.1c0.17-0.02,0.2-0.06,0.2-0.25v-7.11
	c0-0.14-0.04-0.23-0.16-0.27l-0.71-0.24l0.12-0.81h2.17v8.42c0,0.2,0.01,0.23,0.2,0.25l0.69,0.09v0.81H313.63z M322.65,36.37
	c-0.68,0.36-1.48,0.6-2.38,0.6c-2.3,0-3.06-1.51-3.06-3.46c0-2.3,1.3-3.38,2.93-3.38c1.56,0,2.63,0.85,2.63,3.06
	c0,0.17-0.01,0.5-0.04,0.74h-4c0.06,1.18,0.51,1.88,1.71,1.88c0.61,0,1.08-0.13,1.82-0.44L322.65,36.37z M321.34,32.87
	c0-1.24-0.56-1.64-1.23-1.64c-0.71,0-1.32,0.48-1.38,1.64H321.34z"/>
<g>
	<g>
		<ellipse fill="#F4F4F2" cx="69.1" cy="165.06" rx="28.94" ry="29.62"/>
		<path fill="#908A82" d="M69.1,195.87c-16.6,0-30.1-13.82-30.1-30.81c0-16.99,13.5-30.81,30.1-30.81s30.1,13.82,30.1,30.81
			C99.21,182.05,85.7,195.87,69.1,195.87z M69.1,136.64c-15.31,0-27.77,12.75-27.77,28.42s12.46,28.42,27.77,28.42
			s27.77-12.75,27.77-28.42S84.42,136.64,69.1,136.64z"/>
	</g>
	<g>
		<g>
			<path fill="#908A82" d="M81.43,150.39c0.43,0.44,0.65,0.95,0.68,1.53v26.62c-0.02,0.58-0.25,1.09-0.68,1.53
				c-0.43,0.44-0.93,0.67-1.49,0.69H69.1v4.44l-3.25-3.33l-3.25,3.33v-4.44h-4.33c-0.56-0.02-1.06-0.25-1.49-0.69
				c-0.43-0.44-0.65-0.95-0.68-1.53v-26.62c0.02-0.58,0.25-1.09,0.68-1.53c0.43-0.44,0.93-0.67,1.49-0.69H69.1
				c5.91,0,9.53,0,10.84,0C80.5,149.72,81,149.95,81.43,150.39z M79.94,174.1H58.27v3.33c0,0.28,0.11,0.53,0.32,0.74
				c0.21,0.22,0.47,0.34,0.76,0.36h3.25v-2.22h6.5v2.22h9.75c0.29-0.02,0.55-0.14,0.76-0.36c0.21-0.22,0.32-0.47,0.32-0.74V174.1z
				 M79.97,151.92H62.6v19.96h17.34L79.97,151.92z M66.94,156.35h-2.17v-2.22h2.17V156.35z M66.94,160.79h-2.17v-2.22h2.17V160.79z
				 M66.94,165.23h-2.17v-2.22h2.17V165.23z M66.94,169.66h-2.17v-2.22h2.17V169.66z"/>
		</g>
	</g>
</g>
</svg>
